<svg width="56" height="56" viewBox="0 0 56 56" fill="none" xmlns="http://www.w3.org/2000/svg">
<path d="M56 11.9992V3.99919C55.9998 3.80289 55.9419 3.61099 55.8334 3.44739C55.725 3.28379 55.5707 3.15574 55.39 3.07919L48.39 0.079185C48.2666 0.026928 48.134 0 48 0C47.866 0 47.7334 0.026928 47.61 0.079185L40.61 3.07919C40.4293 3.15574 40.275 3.28379 40.1666 3.44739C40.0581 3.61099 40.0002 3.80289 40 3.99919V11.9992C40.0002 12.1955 40.0581 12.3874 40.1666 12.551C40.275 12.7146 40.4293 12.8426 40.61 12.9192L41.35 13.2392L35.74 18.8492C33.5802 17.0105 30.8364 16.0007 28 16.0007C25.1636 16.0007 22.4198 17.0105 20.26 18.8492L14.65 13.2392L15.39 12.9192C15.5707 12.8426 15.725 12.7146 15.8334 12.551C15.9419 12.3874 15.9998 12.1955 16 11.9992V3.99919C15.9998 3.80289 15.9419 3.61099 15.8334 3.44739C15.725 3.28379 15.5707 3.15574 15.39 3.07919L8.39 0.079185C8.26662 0.026928 8.13399 0 8 0C7.86601 0 7.73338 0.026928 7.61 0.079185L0.61 3.07919C0.429252 3.15574 0.275031 3.28379 0.166558 3.44739C0.058086 3.61099 0.000159977 3.80289 0 3.99919V11.9992C0.000159977 12.1955 0.058086 12.3874 0.166558 12.551C0.275031 12.7146 0.429252 12.8426 0.61 12.9192L7.61 15.9192C7.73338 15.9714 7.86601 15.9984 8 15.9984C8.13399 15.9984 8.26662 15.9714 8.39 15.9192L12.67 14.0892L18.85 20.2592C17.0113 22.4189 16.0015 25.1627 16.0015 27.9992C16.0015 30.8356 17.0113 33.5794 18.85 35.7392L12.67 41.9092L8.39 40.0792C8.26662 40.0269 8.13399 40 8 40C7.86601 40 7.73338 40.0269 7.61 40.0792L0.61 43.0792C0.429252 43.1557 0.275031 43.2838 0.166558 43.4474C0.058086 43.611 0.000159977 43.8029 0 43.9992V51.9992C0.000159977 52.1955 0.058086 52.3874 0.166558 52.551C0.275031 52.7146 0.429252 52.8426 0.61 52.9192L7.61 55.9192C7.73338 55.9714 7.86601 55.9984 8 55.9984C8.13399 55.9984 8.26662 55.9714 8.39 55.9192L15.39 52.9192C15.5707 52.8426 15.725 52.7146 15.8334 52.551C15.9419 52.3874 15.9998 52.1955 16 51.9992V43.9992C15.9998 43.8029 15.9419 43.611 15.8334 43.4474C15.725 43.2838 15.5707 43.1557 15.39 43.0792L14.65 42.7592L20.26 37.1492C22.4198 38.9879 25.1636 39.9977 28 39.9977C30.8364 39.9977 33.5802 38.9879 35.74 37.1492L41.35 42.7592L40.61 43.0792C40.4293 43.1557 40.275 43.2838 40.1666 43.4474C40.0581 43.611 40.0002 43.8029 40 43.9992V51.9992C40.0002 52.1955 40.0581 52.3874 40.1666 52.551C40.275 52.7146 40.4293 52.8426 40.61 52.9192L47.61 55.9192C47.7334 55.9714 47.866 55.9984 48 55.9984C48.134 55.9984 48.2666 55.9714 48.39 55.9192L55.39 52.9192C55.5707 52.8426 55.725 52.7146 55.8334 52.551C55.9419 52.3874 55.9998 52.1955 56 51.9992V43.9992C55.9998 43.8029 55.9419 43.611 55.8334 43.4474C55.725 43.2838 55.5707 43.1557 55.39 43.0792L48.39 40.0792C48.2666 40.0269 48.134 40 48 40C47.866 40 47.7334 40.0269 47.61 40.0792L43.33 41.9092L37.15 35.7392C38.9887 33.5794 39.9985 30.8356 39.9985 27.9992C39.9985 25.1627 38.9887 22.4189 37.15 20.2592L43.33 14.0892L47.61 15.9192C47.7334 15.9714 47.866 15.9984 48 15.9984C48.134 15.9984 48.2666 15.9714 48.39 15.9192L55.39 12.9192C55.5707 12.8426 55.725 12.7146 55.8334 12.551C55.9419 12.3874 55.9998 12.1955 56 11.9992ZM7 13.4792L2 11.3392V5.51919L7 7.65918V13.4792ZM8 5.90918L3.54 3.99919L8 2.08919L12.46 3.99919L8 5.90918ZM9 7.65918L14 5.51919V11.3392L9 13.4792V7.65918ZM7 53.4792L2 51.3392V45.5192L7 47.6592V53.4792ZM8 45.9092L3.54 43.9992L8 42.0892L12.46 43.9992L8 45.9092ZM14 51.3392L9 53.4792V47.6592L14 45.5192V51.3392ZM47 53.4792L42 51.3392V45.5192L47 47.6592V53.4792ZM54 51.3392L49 53.4792V47.6592L54 45.5192V51.3392ZM48 42.0892L52.46 43.9992L48 45.9092L43.54 43.9992L48 42.0892ZM28 37.9992C26.0222 37.9992 24.0888 37.4127 22.4443 36.3139C20.7998 35.2151 19.5181 33.6533 18.7612 31.826C18.0043 29.9988 17.8063 27.9881 18.1921 26.0483C18.578 24.1085 19.5304 22.3266 20.9289 20.9281C22.3275 19.5296 24.1093 18.5772 26.0491 18.1913C27.9889 17.8055 29.9996 18.0035 31.8268 18.7604C33.6541 19.5173 35.2159 20.799 36.3147 22.4435C37.4135 24.088 38 26.0214 38 27.9992C38 30.6514 36.9464 33.1949 35.0711 35.0703C33.1957 36.9456 30.6522 37.9992 28 37.9992ZM47 13.4792L42 11.3392V5.51919L47 7.65918V13.4792ZM48 5.90918L43.54 3.99919L48 2.08919L52.46 3.99919L48 5.90918ZM54 11.3392L49 13.4792V7.65918L54 5.51919V11.3392Z" fill="white"/>
</svg>
