<svg width="56" height="56" viewBox="0 0 56 56" fill="none" xmlns="http://www.w3.org/2000/svg">
<path d="M25.4019 7.5C25.4896 7.65206 25.6159 7.77832 25.768 7.86609C25.92 7.95386 26.0925 8.00005 26.2681 8H27V9C27 9.26522 27.1054 9.51957 27.2929 9.70711C27.4804 9.89464 27.7348 10 28 10C28.2652 10 28.5196 9.89464 28.7071 9.70711C28.8946 9.51957 29 9.26522 29 9V8H29.7319C29.9075 8.00005 30.08 7.95386 30.232 7.86609C30.3841 7.77832 30.5104 7.65206 30.5981 7.5L32.3301 4.5C32.4177 4.34791 32.4637 4.1755 32.4637 4C32.4637 3.8245 32.4177 3.65209 32.3301 3.5L30.5981 0.5C30.5104 0.347943 30.3841 0.221678 30.232 0.133907C30.08 0.0461353 29.9075 -4.85947e-05 29.7319 3.83694e-08H26.2681C26.0925 -4.85947e-05 25.92 0.0461353 25.768 0.133907C25.6159 0.221678 25.4896 0.347943 25.4019 0.5L23.6699 3.5C23.5823 3.65209 23.5363 3.8245 23.5363 4C23.5363 4.1755 23.5823 4.34791 23.6699 4.5L25.4019 7.5ZM26.8452 2H29.1548L30.3091 4L29.1548 6H26.8452L25.6909 4L26.8452 2Z" fill="white"/>
<path d="M9.40186 7.5C9.48963 7.65206 9.6159 7.77832 9.76795 7.86609C9.92001 7.95386 10.0925 8.00005 10.2681 8H11V12C11 12.1313 11.0258 12.2614 11.0761 12.3827C11.1263 12.5041 11.2 12.6143 11.2928 12.7072C11.3857 12.8 11.4959 12.8737 11.6173 12.9239C11.7386 12.9742 11.8687 13 12 13H15V14.5596C15 14.8248 15.1054 15.0791 15.2929 15.2667C15.4804 15.4542 15.7348 15.5596 16 15.5596C16.2652 15.5596 16.5196 15.4542 16.7071 15.2667C16.8946 15.0791 17 14.8248 17 14.5596V12C17 11.8687 16.9742 11.7386 16.9239 11.6173C16.8737 11.4959 16.8 11.3857 16.7072 11.2928C16.6143 11.2 16.5041 11.1263 16.3827 11.0761C16.2614 11.0258 16.1313 11 16 11H13V8H13.7319C13.9075 8.00005 14.08 7.95386 14.232 7.86609C14.3841 7.77832 14.5104 7.65206 14.5981 7.5L16.3301 4.5C16.4177 4.34791 16.4637 4.1755 16.4637 4C16.4637 3.8245 16.4177 3.65209 16.3301 3.5L14.5981 0.5C14.5104 0.347943 14.3841 0.221678 14.232 0.133907C14.08 0.0461353 13.9075 -4.85947e-05 13.7319 3.83694e-08H10.2681C10.0925 -4.85947e-05 9.92001 0.0461353 9.76795 0.133907C9.6159 0.221678 9.48963 0.347943 9.40186 0.5L7.66992 3.5C7.58235 3.65209 7.53625 3.8245 7.53625 4C7.53625 4.1755 7.58235 4.34791 7.66992 4.5L9.40186 7.5ZM10.8452 2H13.1548L14.3091 4L13.1548 6H10.8452L9.69092 4L10.8452 2Z" fill="white"/>
<path d="M40 15.5703C40.1313 15.5703 40.2614 15.5445 40.3827 15.4943C40.5041 15.444 40.6143 15.3704 40.7072 15.2775C40.8001 15.1846 40.8737 15.0744 40.924 14.953C40.9742 14.8317 41 14.7016 41 14.5703V13H44C44.1313 13 44.2614 12.9742 44.3827 12.9239C44.5041 12.8737 44.6143 12.8 44.7072 12.7072C44.8 12.6143 44.8737 12.5041 44.924 12.3827C44.9742 12.2614 45 12.1313 45 12V8H45.7319C45.9075 8.00005 46.08 7.95386 46.232 7.86609C46.3841 7.77832 46.5104 7.65206 46.5981 7.5L48.3301 4.5C48.4177 4.34791 48.4637 4.1755 48.4637 4C48.4637 3.8245 48.4177 3.65209 48.3301 3.5L46.5981 0.5C46.5104 0.347943 46.3841 0.221678 46.232 0.133907C46.08 0.0461353 45.9075 -4.85947e-05 45.7319 3.83694e-08H42.2681C42.0925 -4.85947e-05 41.92 0.0461353 41.768 0.133907C41.6159 0.221678 41.4896 0.347943 41.4019 0.5L39.6699 3.5C39.5823 3.65209 39.5363 3.8245 39.5363 4C39.5363 4.1755 39.5823 4.34791 39.6699 4.5L41.4019 7.5C41.4896 7.65206 41.6159 7.77832 41.768 7.86609C41.92 7.95386 42.0925 8.00005 42.2681 8H43V11H40C39.8687 11 39.7386 11.0258 39.6173 11.0761C39.4959 11.1263 39.3857 11.2 39.2928 11.2928C39.2 11.3857 39.1263 11.4959 39.076 11.6173C39.0258 11.7386 39 11.8687 39 12V14.5703C39 14.7016 39.0258 14.8317 39.076 14.953C39.1263 15.0744 39.1999 15.1846 39.2928 15.2775C39.3857 15.3704 39.4959 15.444 39.6173 15.4943C39.7386 15.5445 39.8687 15.5703 40 15.5703ZM41.6909 4L42.8452 2H45.1548L46.3091 4L45.1548 6H42.8452L41.6909 4Z" fill="white"/>
<path d="M8 29.7324V29H10.9399C11.2052 29 11.4595 28.8946 11.647 28.7071C11.8346 28.5196 11.9399 28.2652 11.9399 28C11.9399 27.7348 11.8346 27.4804 11.647 27.2929C11.4595 27.1054 11.2052 27 10.9399 27H8V26.2676C8.00005 26.092 7.95386 25.9195 7.86609 25.7675C7.77832 25.6154 7.65206 25.4891 7.5 25.4014L4.5 23.6699C4.34784 23.5826 4.17545 23.5366 4 23.5366C3.82455 23.5366 3.65216 23.5826 3.5 23.6699L0.5 25.4014C0.347943 25.4891 0.22168 25.6154 0.133908 25.7675C0.0461368 25.9195 -4.7582e-05 26.092 3.6786e-08 26.2676V29.7324C-4.7582e-05 29.908 0.0461368 30.0805 0.133908 30.2325C0.22168 30.3846 0.347943 30.5109 0.5 30.5986L3.5 32.3301C3.65206 32.4177 3.82449 32.4639 4 32.4639C4.17551 32.4639 4.34794 32.4177 4.5 32.3301L7.5 30.5986C7.65206 30.5109 7.77832 30.3846 7.86609 30.2325C7.95386 30.0805 8.00005 29.908 8 29.7324ZM6 29.1553L4 30.3096L2 29.1553V26.8447L4 25.6904L6 26.8447V29.1553Z" fill="white"/>
<path d="M30.5981 48.5C30.5104 48.3479 30.3841 48.2217 30.232 48.1339C30.08 48.0461 29.9075 48 29.7319 48H29V47C29 46.7348 28.8946 46.4804 28.7071 46.2929C28.5196 46.1054 28.2652 46 28 46C27.7348 46 27.4804 46.1054 27.2929 46.2929C27.1054 46.4804 27 46.7348 27 47V48H26.2681C26.0925 48 25.92 48.0461 25.768 48.1339C25.6159 48.2217 25.4896 48.3479 25.4019 48.5L23.6699 51.5C23.5823 51.6521 23.5363 51.8245 23.5363 52C23.5363 52.1755 23.5823 52.3479 23.6699 52.5L25.4019 55.5C25.4896 55.6521 25.6159 55.7783 25.768 55.8661C25.92 55.9539 26.0925 56 26.2681 56H29.7319C29.9075 56 30.08 55.9539 30.232 55.8661C30.3841 55.7783 30.5104 55.6521 30.5981 55.5L32.3301 52.5C32.4177 52.3479 32.4637 52.1755 32.4637 52C32.4637 51.8245 32.4177 51.6521 32.3301 51.5L30.5981 48.5ZM29.1548 54H26.8452L25.6909 52L26.8452 50H29.1548L30.3091 52L29.1548 54Z" fill="white"/>
<path d="M46.5981 48.5C46.5104 48.3479 46.3841 48.2217 46.232 48.1339C46.08 48.0461 45.9075 48 45.7319 48H45V44C45 43.8687 44.9742 43.7386 44.924 43.6173C44.8737 43.4959 44.8 43.3857 44.7072 43.2928C44.6143 43.2 44.5041 43.1263 44.3827 43.076C44.2614 43.0258 44.1313 43 44 43H41V41.4404C41 41.1752 40.8946 40.9209 40.7071 40.7333C40.5196 40.5458 40.2652 40.4404 40 40.4404C39.7348 40.4404 39.4804 40.5458 39.2929 40.7333C39.1054 40.9209 39 41.1752 39 41.4404V44C39 44.1313 39.0258 44.2614 39.076 44.3827C39.1263 44.5041 39.2 44.6143 39.2928 44.7072C39.3857 44.8 39.4959 44.8737 39.6173 44.924C39.7386 44.9742 39.8687 45 40 45H43V48H42.2681C42.0925 48 41.92 48.0461 41.768 48.1339C41.6159 48.2217 41.4896 48.3479 41.4019 48.5L39.6699 51.5C39.5823 51.6521 39.5363 51.8245 39.5363 52C39.5363 52.1755 39.5823 52.3479 39.6699 52.5L41.4019 55.5C41.4896 55.6521 41.6159 55.7783 41.768 55.8661C41.92 55.9539 42.0925 56 42.2681 56H45.7319C45.9075 56 46.08 55.9539 46.232 55.8661C46.3841 55.7783 46.5104 55.6521 46.5981 55.5L48.3301 52.5C48.4177 52.3479 48.4637 52.1755 48.4637 52C48.4637 51.8245 48.4177 51.6521 48.3301 51.5L46.5981 48.5ZM45.1548 54H42.8452L41.6909 52L42.8452 50H45.1548L46.3091 52L45.1548 54Z" fill="white"/>
<path d="M16 40.4297C15.8687 40.4297 15.7386 40.4555 15.6173 40.5057C15.4959 40.556 15.3857 40.6296 15.2928 40.7225C15.1999 40.8154 15.1263 40.9256 15.076 41.047C15.0258 41.1683 15 41.2984 15 41.4297V43H12C11.8687 43 11.7386 43.0258 11.6173 43.076C11.4959 43.1263 11.3857 43.1999 11.2928 43.2928C11.2 43.3857 11.1263 43.4959 11.0761 43.6173C11.0258 43.7386 11 43.8687 11 44V48H10.2681C10.0925 47.9999 9.92001 48.0461 9.76795 48.1339C9.6159 48.2217 9.48963 48.3479 9.40186 48.5L7.66992 51.5C7.58235 51.6521 7.53625 51.8245 7.53625 52C7.53625 52.1755 7.58235 52.3479 7.66992 52.5L9.40186 55.5C9.48963 55.6521 9.6159 55.7783 9.76795 55.8661C9.92001 55.9539 10.0925 56 10.2681 56H13.7319C13.9075 56 14.08 55.9539 14.232 55.8661C14.3841 55.7783 14.5104 55.6521 14.5981 55.5L16.3301 52.5C16.4177 52.3479 16.4637 52.1755 16.4637 52C16.4637 51.8245 16.4177 51.6521 16.3301 51.5L14.5981 48.5C14.5104 48.3479 14.3841 48.2217 14.232 48.1339C14.08 48.0461 13.9075 47.9999 13.7319 48H13V45H16C16.1313 45 16.2614 44.9742 16.3827 44.9239C16.5041 44.8737 16.6143 44.8 16.7072 44.7072C16.8 44.6143 16.8737 44.5041 16.9239 44.3827C16.9742 44.2614 17 44.1313 17 44V41.4297C17 41.2984 16.9742 41.1683 16.924 41.047C16.8737 40.9256 16.8001 40.8154 16.7072 40.7225C16.6143 40.6296 16.5041 40.556 16.3827 40.5057C16.2614 40.4555 16.1313 40.4297 16 40.4297ZM14.3091 52L13.1548 54H10.8452L9.69092 52L10.8452 50H13.1548L14.3091 52Z" fill="white"/>
<path d="M55.5 25.4014L52.5 23.6699C52.3478 23.5826 52.1754 23.5366 52 23.5366C51.8246 23.5366 51.6522 23.5826 51.5 23.6699L48.5 25.4014C48.3479 25.4891 48.2217 25.6154 48.1339 25.7675C48.0461 25.9195 48 26.092 48 26.2676V27H45.0601C44.7948 27 44.5405 27.1054 44.353 27.2929C44.1654 27.4804 44.0601 27.7348 44.0601 28C44.0601 28.2652 44.1654 28.5196 44.353 28.7071C44.5405 28.8946 44.7948 29 45.0601 29H48V29.7324C48 29.908 48.0461 30.0805 48.1339 30.2325C48.2217 30.3846 48.3479 30.5109 48.5 30.5986L51.5 32.3301C51.6521 32.4177 51.8245 32.4639 52 32.4639C52.1755 32.4639 52.3479 32.4177 52.5 32.3301L55.5 30.5986C55.6521 30.5109 55.7783 30.3846 55.8661 30.2325C55.9539 30.0805 56 29.908 56 29.7324V26.2676C56 26.092 55.9539 25.9195 55.8661 25.7675C55.7783 25.6154 55.6521 25.4891 55.5 25.4014ZM54 29.1553L52 30.3096L50 29.1553V26.8447L52 25.6904L54 26.8447V29.1553Z" fill="white"/>
<path d="M41.0224 37.4424L42.6884 34.5566C42.9654 34.0713 43.0396 33.4963 42.8951 32.9565C42.7505 32.4168 42.3988 31.9558 41.9164 31.6738C41.8475 31.618 41.6062 31.5478 41.6297 31.4307C42.1537 29.1389 42.1722 26.7605 41.684 24.4609C41.9574 24.3393 42.2024 24.162 42.4035 23.9403C42.6046 23.7187 42.7572 23.4576 42.8518 23.1737C42.9463 22.8897 42.9806 22.5892 42.9524 22.2913C42.9243 21.9934 42.8344 21.7046 42.6884 21.4434L41.022 18.5567C40.8679 18.3006 40.6624 18.0792 40.4183 17.9066C40.1743 17.734 39.8971 17.6139 39.6043 17.554C39.3115 17.4941 39.0094 17.4956 38.7172 17.5584C38.4249 17.6213 38.1489 17.7441 37.9066 17.9191C36.1592 16.3445 34.089 15.1703 31.8408 14.4785C31.8214 14.4707 31.8048 14.457 31.7935 14.4393C31.7822 14.4216 31.7767 14.4008 31.7778 14.3799C31.8103 14.082 31.7802 13.7806 31.6892 13.495C31.5982 13.2095 31.4485 12.9462 31.2496 12.722C31.0507 12.4978 30.8071 12.3178 30.5345 12.1934C30.2618 12.0691 29.9661 12.0032 29.6665 12H26.3335C25.7737 12.0007 25.2371 12.2233 24.8413 12.6191C24.4455 13.0149 24.2228 13.5516 24.2222 14.1113C24.209 14.1988 24.2662 14.4382 24.1577 14.4795C21.9233 15.1148 19.8809 16.2934 18.2129 17.9102C18.1224 17.9884 17.9582 17.8265 17.8638 17.7862C17.3782 17.5082 16.8024 17.4333 16.2618 17.5778C15.7213 17.7223 15.2597 18.0744 14.9775 18.5576L13.3115 21.4434C13.1723 21.6833 13.082 21.9485 13.0459 22.2236C13.0098 22.4987 13.0285 22.7782 13.1011 23.0459C13.1888 23.3563 13.3432 23.6438 13.5535 23.8884C13.7637 24.1329 14.0248 24.3287 14.3185 24.4619C13.8268 26.7608 13.8444 29.1394 14.3701 31.4307C14.3934 31.5466 14.1668 31.6113 14.0855 31.6729C13.6024 31.9545 13.25 32.4155 13.1051 32.9555C12.9602 33.4956 13.0343 34.071 13.3115 34.5567L14.978 37.4433C15.1321 37.6994 15.3377 37.9206 15.5817 38.0932C15.8258 38.2657 16.103 38.3857 16.3958 38.4457C16.6886 38.5056 16.9906 38.5041 17.2828 38.4413C17.575 38.3785 17.851 38.2558 18.0933 38.0809C19.8408 39.6555 21.9109 40.8296 24.1591 41.5214C24.2651 41.5613 24.2105 41.7888 24.2221 41.8887C24.2228 42.4484 24.4455 42.9851 24.8413 43.3809C25.2371 43.7767 25.7737 43.9993 26.3335 44H29.6665C29.9662 43.9968 30.2618 43.9309 30.5345 43.8065C30.8071 43.6821 31.0507 43.5021 31.2496 43.2779C31.4485 43.0537 31.5982 42.7903 31.6892 42.5048C31.7801 42.2193 31.8103 41.9178 31.7778 41.6199C34.0134 40.8935 36.0641 39.6889 37.7871 38.0898C37.8354 38.042 37.9272 38.0928 37.9433 38.1025C38.1852 38.2726 38.4597 38.3909 38.7494 38.45C39.0392 38.509 39.338 38.5075 39.6272 38.4455C39.9163 38.3835 40.1895 38.2624 40.4297 38.0898C40.6698 37.9171 40.8716 37.6967 41.0224 37.4424ZM38.9458 36.3711C38.5486 36.1316 38.0836 36.0295 37.6226 36.0805C37.1616 36.1315 36.7302 36.3328 36.395 36.6533C34.9653 38.0399 33.2144 39.0507 31.2988 39.5957C30.86 39.7225 30.4744 39.9886 30.2 40.3537C29.9257 40.7189 29.7775 41.1634 29.7778 41.6201C29.7626 41.7158 29.8371 42.0065 29.6665 42H26.3335C26.3189 42 26.3044 41.9971 26.2909 41.9915C26.2774 41.986 26.2651 41.9778 26.2547 41.9674C26.2444 41.9571 26.2362 41.9448 26.2306 41.9313C26.225 41.9178 26.2222 41.9033 26.2222 41.8887C26.276 41.3894 26.1535 40.887 25.8761 40.4684C25.5986 40.0499 25.1835 39.7415 24.7026 39.5967C22.7862 39.0512 21.0347 38.0397 19.6045 36.6523C19.2126 36.2758 18.6899 36.066 18.1465 36.0673C17.6993 36.0745 17.2639 36.2123 16.894 36.4638C16.8374 36.498 16.7944 36.496 16.71 36.4423L15.044 33.5566C15.0323 33.5302 15.0301 33.5006 15.0378 33.4728C15.0456 33.445 15.0628 33.4207 15.0864 33.4042C17.372 32.3168 15.7644 29.8873 15.9444 28C15.7398 26.2196 17.2978 23.8973 15.3189 22.7304C15.2402 22.6705 14.9645 22.5871 15.044 22.4433L16.7095 19.5585C16.7256 19.5346 16.7498 19.5172 16.7777 19.5095C16.8055 19.5018 16.8352 19.5043 16.8614 19.5165L17.0909 19.6493C17.486 19.8785 17.945 19.9729 18.3986 19.9183C18.8521 19.8637 19.2756 19.663 19.605 19.3466C21.0347 17.9601 22.7856 16.9492 24.7012 16.4042C25.1824 16.2594 25.5978 15.951 25.8755 15.5322C26.1533 15.1135 26.2759 14.6108 26.2222 14.1112C26.2222 14.0817 26.2339 14.0534 26.2548 14.0326C26.2757 14.0117 26.304 14 26.3335 14H29.6665C29.6811 14 29.6956 14.0029 29.7091 14.0085C29.7226 14.0141 29.7349 14.0223 29.7452 14.0326C29.7556 14.0429 29.7638 14.0552 29.7694 14.0687C29.775 14.0822 29.7778 14.0967 29.7778 14.1113C29.724 14.6106 29.8464 15.113 30.1239 15.5316C30.4014 15.9501 30.8165 16.2585 31.2973 16.4033C33.2138 16.9488 34.9653 17.9603 36.3955 19.3476C36.7561 19.687 37.2231 19.8911 37.7171 19.9255C38.2111 19.9599 38.7018 19.8223 39.1059 19.5361C39.1636 19.502 39.206 19.5049 39.29 19.5576L40.956 22.4434C40.9677 22.4697 40.9699 22.4994 40.9622 22.5272C40.9544 22.555 40.9372 22.5792 40.9135 22.5957C38.628 23.6832 40.2355 26.1124 40.0555 28C40.2601 29.7802 38.7022 32.1028 40.6811 33.2695C40.7598 33.3294 41.0355 33.4128 40.956 33.5566L39.2905 36.4414C39.2738 36.4647 39.2498 36.4815 39.2222 36.4891C39.1947 36.4968 39.1653 36.4948 39.1391 36.4834L38.9458 36.3711Z" fill="white"/>
<path d="M28 19.5C26.3189 19.5 24.6755 19.9985 23.2777 20.9325C21.8798 21.8665 20.7904 23.194 20.147 24.7472C19.5037 26.3004 19.3354 28.0094 19.6633 29.6583C19.9913 31.3071 20.8008 32.8217 21.9896 34.0104C23.1783 35.1992 24.6929 36.0087 26.3417 36.3367C27.9906 36.6646 29.6996 36.4963 31.2528 35.853C32.806 35.2096 34.1335 34.1202 35.0675 32.7223C36.0015 31.3245 36.5 29.6811 36.5 28C36.4974 25.7465 35.601 23.586 34.0075 21.9925C32.414 20.399 30.2535 19.5026 28 19.5ZM28 34.5C26.7144 34.5 25.4577 34.1188 24.3888 33.4046C23.3199 32.6903 22.4868 31.6752 21.9948 30.4874C21.5028 29.2997 21.3741 27.9928 21.6249 26.7319C21.8757 25.471 22.4948 24.3128 23.4038 23.4038C24.3129 22.4948 25.471 21.8757 26.7319 21.6249C27.9928 21.3741 29.2997 21.5028 30.4874 21.9948C31.6752 22.4868 32.6903 23.3199 33.4046 24.3888C34.1188 25.4577 34.5 26.7144 34.5 28C34.498 29.7233 33.8126 31.3754 32.594 32.594C31.3754 33.8125 29.7233 34.498 28 34.5Z" fill="white"/>
</svg>
