<svg width="30" height="22" viewBox="0 0 30 22" fill="none" xmlns="http://www.w3.org/2000/svg">
<path d="M29.089 0.406293C28.6202 0.0917616 28.0535 -0.0472328 27.4906 0.0142218C26.9276 0.0756765 26.4052 0.333563 26.0169 0.741658L11.5827 15.0282C11.3729 15.2361 11.1237 15.401 10.8495 15.5135C10.5753 15.626 10.2814 15.6839 9.98451 15.6839C9.68766 15.6839 9.39371 15.626 9.11949 15.5135C8.84527 15.401 8.59614 15.2361 8.38635 15.0282L3.97024 10.6461C3.58196 10.238 3.05953 9.98014 2.49658 9.91868C1.93364 9.85723 1.36698 9.99622 0.898171 10.3108C0.641434 10.5025 0.429035 10.7463 0.275183 11.0259C0.121331 11.3055 0.0295735 11.6143 0.00604972 11.9318C-0.0174741 12.2493 0.027778 12.5682 0.138779 12.8669C0.24978 13.1657 0.423969 13.4376 0.649694 13.6644L6.79384 19.7681L8.38635 21.3443C8.59614 21.5522 8.84527 21.7171 9.11949 21.8296C9.39371 21.9421 9.68766 22 9.98451 22C10.2814 22 10.5753 21.9421 10.8495 21.8296C11.1237 21.7171 11.3729 21.5522 11.5827 21.3443L13.1752 19.7681L29.3374 3.78231C29.5671 3.55531 29.7446 3.282 29.8579 2.981C29.9712 2.68 30.0176 2.35837 29.994 2.038C29.9704 1.71763 29.8774 1.40606 29.7212 1.12449C29.565 0.842915 29.3494 0.597957 29.089 0.406293Z" fill="white"/>
</svg>
