<svg width="57" height="56" viewBox="0 0 57 56" fill="none" xmlns="http://www.w3.org/2000/svg">
<path d="M26.5517 16.4138H26.7931V17.7848H28.7241V16.4138H29.4483C30.2165 16.4138 30.9532 16.1086 31.4964 15.5654C32.0396 15.0222 32.3448 14.2855 32.3448 13.5172V12.5517C32.3448 11.7835 32.0396 11.0468 31.4964 10.5036C30.9532 9.96034 30.2165 9.65517 29.4483 9.65517H26.5517C26.2956 9.65517 26.0501 9.55345 25.869 9.37238C25.6879 9.19131 25.5862 8.94573 25.5862 8.68965V7.72414C25.5862 7.46807 25.6879 7.22248 25.869 7.04141C26.0501 6.86034 26.2956 6.75862 26.5517 6.75862H29.4483C29.7043 6.75862 29.9499 6.86034 30.131 7.04141C30.3121 7.22248 30.4138 7.46807 30.4138 7.72414V8.68965H32.3448V7.72414C32.3448 6.95592 32.0396 6.21917 31.4964 5.67597C30.9532 5.13276 30.2165 4.82759 29.4483 4.82759H29.0428V3.37931H27.1117V4.82759H26.5517C25.7835 4.82759 25.0468 5.13276 24.5035 5.67597C23.9603 6.21917 23.6552 6.95592 23.6552 7.72414V8.68965C23.6552 9.45787 23.9603 10.1946 24.5035 10.7378C25.0468 11.281 25.7835 11.5862 26.5517 11.5862H29.4483C29.7043 11.5862 29.9499 11.6879 30.131 11.869C30.3121 12.0501 30.4138 12.2957 30.4138 12.5517V13.5172C30.4138 13.7733 30.3121 14.0189 30.131 14.2C29.9499 14.381 29.7043 14.4828 29.4483 14.4828H26.5517C26.2956 14.4828 26.0501 14.381 25.869 14.2C25.6879 14.0189 25.5862 13.7733 25.5862 13.5172V12.5517H23.6552V13.5172C23.6552 14.2855 23.9603 15.0222 24.5035 15.5654C25.0468 16.1086 25.7835 16.4138 26.5517 16.4138Z" fill="white"/>
<path d="M28 21.2414C30.1005 21.2414 32.1539 20.6185 33.9005 19.4515C35.6471 18.2845 37.0084 16.6257 37.8122 14.6851C38.6161 12.7444 38.8264 10.6089 38.4166 8.5487C38.0068 6.48849 36.9953 4.59606 35.5099 3.11073C34.0246 1.6254 32.1322 0.61388 30.072 0.204078C28.0118 -0.205723 25.8763 0.00460181 23.9356 0.808456C21.9949 1.61231 20.3362 2.97359 19.1692 4.72015C18.0022 6.46672 17.3793 8.52012 17.3793 10.6207C17.3793 13.4375 18.4982 16.1389 20.49 18.1307C22.4818 20.1224 25.1832 21.2414 28 21.2414ZM28 1.93104C29.7186 1.93104 31.3987 2.44068 32.8277 3.39551C34.2567 4.35034 35.3705 5.70748 36.0282 7.29531C36.6859 8.88313 36.858 10.6303 36.5227 12.316C36.1874 14.0016 35.3598 15.5499 34.1445 16.7652C32.9292 17.9805 31.3809 18.8081 29.6952 19.1434C28.0096 19.4787 26.2624 19.3066 24.6746 18.6489C23.0868 17.9912 21.7296 16.8774 20.7748 15.4484C19.82 14.0194 19.3103 12.3393 19.3103 10.6207C19.3103 8.31605 20.2258 6.1058 21.8555 4.47618C23.4851 2.84655 25.6953 1.93104 28 1.93104Z" fill="white"/>
<path d="M9.17241 51.1724H9.41379V52.5434H11.3448V51.1724H12.069C12.8372 51.1724 13.5739 50.8672 14.1171 50.324C14.6603 49.7808 14.9655 49.0441 14.9655 48.2759V47.3103C14.9655 46.5421 14.6603 45.8054 14.1171 45.2622C13.5739 44.719 12.8372 44.4138 12.069 44.4138H9.17241C8.91634 44.4138 8.67076 44.3121 8.48969 44.131C8.30862 43.9499 8.2069 43.7043 8.2069 43.4483V42.4828C8.2069 42.2267 8.30862 41.9811 8.48969 41.8C8.67076 41.619 8.91634 41.5172 9.17241 41.5172H12.069C12.325 41.5172 12.5706 41.619 12.7517 41.8C12.9328 41.9811 13.0345 42.2267 13.0345 42.4828V43.4483H14.9655V42.4828C14.9655 41.7145 14.6603 40.9778 14.1171 40.4346C13.5739 39.8914 12.8372 39.5862 12.069 39.5862H11.6634V38.1379H9.73241V39.5862H9.17241C8.4042 39.5862 7.66745 39.8914 7.12424 40.4346C6.58103 40.9778 6.27586 41.7145 6.27586 42.4828V43.4483C6.27586 44.2165 6.58103 44.9532 7.12424 45.4964C7.66745 46.0396 8.4042 46.3448 9.17241 46.3448H12.069C12.325 46.3448 12.5706 46.4465 12.7517 46.6276C12.9328 46.8087 13.0345 47.0543 13.0345 47.3103V48.2759C13.0345 48.5319 12.9328 48.7775 12.7517 48.9586C12.5706 49.1396 12.325 49.2414 12.069 49.2414H9.17241C8.91634 49.2414 8.67076 49.1396 8.48969 48.9586C8.30862 48.7775 8.2069 48.5319 8.2069 48.2759V47.3103H6.27586V48.2759C6.27586 49.0441 6.58103 49.7808 7.12424 50.324C7.66745 50.8672 8.4042 51.1724 9.17241 51.1724Z" fill="white"/>
<path d="M10.6207 56C12.7213 56 14.7747 55.3771 16.5212 54.2101C18.2678 53.0431 19.6291 51.3843 20.4329 49.4437C21.2368 47.503 21.4471 45.3675 21.0373 43.3073C20.6275 41.2471 19.616 39.3547 18.1306 37.8693C16.6453 36.384 14.7529 35.3725 12.6927 34.9627C10.6325 34.5529 8.497 34.7632 6.55633 35.5671C4.61565 36.3709 2.95692 37.7322 1.78991 39.4788C0.622892 41.2253 0 43.2787 0 45.3793C0 48.1961 1.11896 50.8975 3.11073 52.8893C5.10249 54.881 7.80391 56 10.6207 56ZM10.6207 36.6897C12.3393 36.6897 14.0194 37.1993 15.4484 38.1541C16.8774 39.109 17.9912 40.4661 18.6489 42.0539C19.3066 43.6417 19.4787 45.3889 19.1434 47.0746C18.8081 48.7602 17.9805 50.3085 16.7652 51.5238C15.5499 52.7391 14.0016 53.5667 12.316 53.902C10.6303 54.2373 8.88313 54.0652 7.2953 53.4075C5.70747 52.7498 4.35034 51.636 3.3955 50.207C2.44067 48.778 1.93103 47.098 1.93103 45.3793C1.93103 43.0747 2.84655 40.8644 4.47617 39.2348C6.1058 37.6052 8.31605 36.6897 10.6207 36.6897Z" fill="white"/>
<path d="M47.7931 39.5862H47.3876V38.1379H45.4566V39.5862H44.8966C44.1283 39.5862 43.3916 39.8914 42.8484 40.4346C42.3052 40.9778 42 41.7145 42 42.4828V43.4483C42 44.2165 42.3052 44.9532 42.8484 45.4964C43.3916 46.0396 44.1283 46.3448 44.8966 46.3448H47.7931C48.0492 46.3448 48.2948 46.4465 48.4758 46.6276C48.6569 46.8087 48.7586 47.0543 48.7586 47.3103V48.2759C48.7586 48.5319 48.6569 48.7775 48.4758 48.9586C48.2948 49.1396 48.0492 49.2414 47.7931 49.2414H44.8966C44.6405 49.2414 44.3949 49.1396 44.2138 48.9586C44.0328 48.7775 43.931 48.5319 43.931 48.2759V47.3103H42V48.2759C42 49.0441 42.3052 49.7808 42.8484 50.324C43.3916 50.8672 44.1283 51.1724 44.8966 51.1724H45.1379V52.5434H47.069V51.1724H47.7931C48.5613 51.1724 49.2981 50.8672 49.8413 50.324C50.3845 49.7808 50.6897 49.0441 50.6897 48.2759V47.3103C50.6897 46.5421 50.3845 45.8054 49.8413 45.2622C49.2981 44.719 48.5613 44.4138 47.7931 44.4138H44.8966C44.6405 44.4138 44.3949 44.3121 44.2138 44.131C44.0328 43.9499 43.931 43.7043 43.931 43.4483V42.4828C43.931 42.2267 44.0328 41.9811 44.2138 41.8C44.3949 41.619 44.6405 41.5172 44.8966 41.5172H47.7931C48.0492 41.5172 48.2948 41.619 48.4758 41.8C48.6569 41.9811 48.7586 42.2267 48.7586 42.4828V43.4483H50.6897V42.4828C50.6897 41.7145 50.3845 40.9778 49.8413 40.4346C49.2981 39.8914 48.5613 39.5862 47.7931 39.5862Z" fill="white"/>
<path d="M46.3448 34.7586C44.2442 34.7586 42.1908 35.3815 40.4443 36.5485C38.6977 37.7155 37.3364 39.3743 36.5326 41.3149C35.7287 43.2556 35.5184 45.3911 35.9282 47.4513C36.338 49.5115 37.3495 51.4039 38.8349 52.8893C40.3202 54.3746 42.2126 55.3861 44.2728 55.7959C46.333 56.2057 48.4685 55.9954 50.4092 55.1915C52.3499 54.3877 54.0086 53.0264 55.1756 51.2798C56.3426 49.5333 56.9655 47.4799 56.9655 45.3793C56.9655 42.5625 55.8465 39.8611 53.8548 37.8693C51.863 35.8776 49.1616 34.7586 46.3448 34.7586ZM46.3448 54.069C44.6262 54.069 42.9461 53.5593 41.5171 52.6045C40.0881 51.6497 38.9743 50.2925 38.3166 48.7047C37.6589 47.1169 37.4868 45.3697 37.8221 43.684C38.1574 41.9984 38.985 40.4501 40.2003 39.2348C41.4156 38.0195 42.9639 37.1919 44.6495 36.8566C46.3352 36.5213 48.0824 36.6934 49.6702 37.3511C51.258 38.0088 52.6152 39.1226 53.57 40.5516C54.5248 41.9806 55.0345 43.6607 55.0345 45.3793C55.0345 47.6839 54.119 49.8942 52.4893 51.5238C50.8597 53.1534 48.6495 54.069 46.3448 54.069Z" fill="white"/>
<path d="M40.4552 30.0372L43.9214 33.3972C44.1023 33.5771 44.347 33.678 44.6021 33.678C44.8572 33.678 45.1019 33.5771 45.2828 33.3972L48.6524 29.931L47.3104 28.5697L45.5531 30.3848C44.8097 23.1724 39.2386 15.5159 38.9779 15.1586L37.4235 16.3076C37.4814 16.3848 42.84 23.7517 43.5738 30.3655L41.8069 28.6469L40.4552 30.0372Z" fill="white"/>
<path d="M16.0565 15.1586C15.7959 15.5159 10.2634 23.1821 9.51999 30.3848L7.72413 28.5697L6.38206 29.931L9.74206 33.3972C9.92297 33.5771 10.1677 33.678 10.4228 33.678C10.6778 33.678 10.9225 33.5771 11.1034 33.3972L14.5696 30.0372L13.2276 28.6469L11.4607 30.3559C12.1945 23.7421 17.5434 16.3848 17.611 16.2979L16.0565 15.1586Z" fill="white"/>
</svg>
