<svg width="52" height="56" viewBox="0 0 52 56" fill="none" xmlns="http://www.w3.org/2000/svg">
<path d="M1.18128 56H8.26897C8.91867 56 9.45025 55.4641 9.45025 54.809V42.8992C9.45025 42.2441 8.91867 41.7082 8.26897 41.7082H1.18128C0.531577 41.7082 0 42.2441 0 42.8992V54.809C0 55.4641 0.531577 56 1.18128 56ZM2.36256 44.0902H7.08769V53.618H2.36256V44.0902Z" fill="white"/>
<path d="M15.3566 26.2254C14.7069 26.2254 14.1754 26.7614 14.1754 27.4164V54.809C14.1754 55.4641 14.7069 56 15.3566 56H22.4443C23.094 56 23.6256 55.4641 23.6256 54.809V27.4164C23.6256 26.7614 23.094 26.2254 22.4443 26.2254H15.3566ZM21.263 53.618H16.5379V28.6074H21.263V53.618Z" fill="white"/>
<path d="M29.5321 34.5623C28.8823 34.5623 28.3508 35.0983 28.3508 35.7533V54.809C28.3508 55.4641 28.8823 56 29.5321 56H36.6197C37.2694 56 37.801 55.4641 37.801 54.809V35.7533C37.801 35.0983 37.2694 34.5623 36.6197 34.5623H29.5321ZM35.4385 53.618H30.7133V36.9443H35.4385V53.618Z" fill="white"/>
<path d="M43.7074 17.8885C43.0577 17.8885 42.5261 18.4245 42.5261 19.0795V54.809C42.5261 55.4641 43.0577 56 43.7074 56H50.7951C51.4448 56 51.9764 55.4641 51.9764 54.809V19.0795C51.9764 18.4245 51.4448 17.8885 50.7951 17.8885H43.7074ZM49.6138 53.618H44.8887V20.2705H49.6138V53.618Z" fill="white"/>
<path d="M4.72512 27.4164C6.67423 27.4164 8.26896 25.8086 8.26896 23.8435C8.26896 23.2956 8.13902 22.7835 7.91458 22.3071L17.3885 12.7554C17.8492 12.9817 18.3571 13.1127 18.9123 13.1127C19.7038 13.1127 20.4362 12.8388 21.0268 12.3862L29.662 18.1982C29.5911 18.4721 29.5438 18.7699 29.5438 19.0676C29.5438 21.0328 31.1386 22.6406 33.0877 22.6406C35.0368 22.6406 36.6315 21.0328 36.6315 19.0676C36.6315 18.5198 36.5016 18.0077 36.2771 17.5313L46.9323 6.7886C47.393 7.01489 47.9009 7.14589 48.4562 7.14589C50.4053 7.14589 52 5.53807 52 3.57295C52 1.60783 50.4053 0 48.4562 0C46.507 0 44.9123 1.60783 44.9123 3.57295C44.9123 4.1208 45.0422 4.63292 45.2667 5.10932L34.6115 15.852C34.1508 15.6257 33.6429 15.4947 33.0877 15.4947C32.2962 15.4947 31.5638 15.7686 30.9732 16.2212L22.338 10.4092C22.4089 10.1353 22.4562 9.83752 22.4562 9.53977C22.4562 7.57465 20.8614 5.96682 18.9123 5.96682C16.9632 5.96682 15.3685 7.57465 15.3685 9.53977C15.3685 10.0876 15.4984 10.5997 15.7228 11.0761L6.24897 20.6278C5.78827 20.4015 5.28032 20.2705 4.72512 20.2705C2.776 20.2705 1.18127 21.8783 1.18127 23.8435C1.18127 25.8086 2.776 27.4164 4.72512 27.4164ZM48.4325 2.40578C49.0822 2.40578 49.6138 2.94173 49.6138 3.59677C49.6138 4.25181 49.0822 4.78775 48.4325 4.78775C48.1136 4.78775 47.8183 4.65674 47.6056 4.44236C47.6056 4.44236 47.6056 4.43045 47.5938 4.43045C47.582 4.43045 47.582 4.43045 47.582 4.41854C47.3812 4.21608 47.2512 3.91833 47.2512 3.59677C47.2512 2.94173 47.7828 2.40578 48.4325 2.40578ZM33.9028 18.2339C33.9028 18.2339 33.9028 18.2459 33.9146 18.2459C33.9146 18.2459 33.9264 18.2459 33.9264 18.2578C34.1272 18.4721 34.2571 18.758 34.2571 19.0795C34.2571 19.7346 33.7256 20.2705 33.0759 20.2705C32.4262 20.2705 31.8946 19.7346 31.8946 19.0795C31.8946 18.4245 32.4262 17.8886 33.0759 17.8886C33.3948 17.8886 33.6783 18.0196 33.9028 18.2339ZM18.9005 8.3607C19.5502 8.3607 20.0818 8.89664 20.0818 9.55168C20.0818 10.2067 19.5502 10.7427 18.9005 10.7427C18.5815 10.7427 18.2862 10.6117 18.0736 10.3973C18.0736 10.3973 18.0736 10.3854 18.0618 10.3854C18.05 10.3854 18.05 10.3854 18.05 10.3735C17.8492 10.171 17.7192 9.87325 17.7192 9.55168C17.7192 8.89664 18.2508 8.3607 18.9005 8.3607ZM4.72512 22.6525C5.04406 22.6525 5.32757 22.7835 5.55201 22.9979C5.55201 22.9979 5.55201 23.0098 5.56383 23.0098C5.56383 23.0098 5.57564 23.0098 5.57564 23.0217C5.77646 23.2361 5.9064 23.5219 5.9064 23.8435C5.9064 24.4985 5.37482 25.0345 4.72512 25.0345C4.07541 25.0345 3.54384 24.4985 3.54384 23.8435C3.54384 23.1884 4.07541 22.6525 4.72512 22.6525Z" fill="white"/>
</svg>
